<?xml version="1.0" standalone="no"?>
<!DOCTYPE svg PUBLIC "-//W3C//DTD SVG 20010904//EN"
 "http://www.w3.org/TR/2001/REC-SVG-20010904/DTD/svg10.dtd">
<svg version="1.0" xmlns="http://www.w3.org/2000/svg"
 width="300.000000pt" height="169.000000pt" viewBox="0 0 300.000000 169.000000"
 preserveAspectRatio="xMidYMid meet">
<metadata>
Created by potrace 1.10, written by Peter Selinger 2001-2011
</metadata>
<g transform="translate(0.000000,169.000000) scale(0.100000,-0.100000)"
fill="#000000" stroke="none">
<path d="M1472 1554 c-23 -16 -32 -77 -12 -89 6 -3 10 -30 10 -60 0 -56 -8
-65 -55 -65 -13 0 -26 -3 -29 -8 -2 -4 4 -59 15 -122 10 -63 19 -116 19 -116
0 -1 15 -1 33 0 32 1 32 1 35 -51 3 -50 2 -53 -20 -53 -24 0 -25 3 -114 193
-14 31 -32 61 -38 65 -6 3 -37 7 -69 7 -67 1 -84 17 -102 99 -6 27 -18 54 -27
59 -25 16 -68 -1 -79 -31 -9 -24 -7 -30 20 -54 33 -30 71 -85 71 -104 0 -6
-13 -17 -30 -24 -51 -21 -52 -31 -15 -93 19 -31 33 -64 33 -74 -1 -10 6 -35
16 -55 18 -37 18 -38 -4 -65 -21 -27 -21 -34 -19 -329 1 -166 -1 -307 -5 -313
-4 -6 -19 -11 -34 -11 -15 0 -38 -3 -51 -7 -22 -6 -22 -6 9 -19 18 -8 42 -14
54 -13 21 0 21 1 1 10 -17 8 -17 9 5 4 14 -2 29 -5 33 -5 5 0 5 -5 2 -11 -5
-7 -32 -8 -81 -4 -51 5 -74 4 -74 -4 0 -6 12 -9 28 -7 15 2 21 1 15 -1 -34
-12 -2 -33 48 -33 20 0 28 -4 23 -12 -4 -7 -3 -8 4 -4 20 12 112 17 112 6 0
-5 14 -10 30 -10 17 0 30 -4 30 -9 0 -4 -19 -5 -42 0 -58 11 -118 11 -98 0 22
-12 174 -25 167 -14 -3 5 7 7 23 5 17 -2 27 -9 23 -14 -4 -7 17 -8 63 -3 108
11 214 13 214 4 0 -5 11 -9 25 -9 26 0 34 15 13 23 -7 3 -2 6 11 6 33 1 174
41 185 52 6 5 17 9 25 9 22 0 121 53 115 62 -3 4 -14 4 -24 -2 -24 -13 -40
-13 -40 0 0 5 7 6 17 3 11 -4 14 -3 9 5 -5 8 3 12 26 13 l33 2 -35 7 -35 7 30
3 c25 2 26 3 7 7 -12 2 -19 9 -16 15 4 5 -5 2 -20 -7 l-26 -17 0 305 0 306
-25 20 -26 20 51 95 c27 53 50 102 50 109 0 8 -18 22 -40 32 -22 10 -40 21
-40 24 0 17 46 80 78 108 36 31 37 32 22 60 -17 31 -61 43 -86 22 -8 -6 -14
-27 -14 -46 0 -22 -11 -50 -31 -80 -28 -40 -34 -44 -58 -37 -40 12 -82 8 -92
-7 -7 -11 -9 -9 -9 6 0 11 -5 36 -10 56 -12 43 -70 80 -112 72 -28 -5 -28 -5
-28 45 0 28 5 63 10 78 14 35 5 58 -26 72 -31 15 -25 15 -52 -4z m58 -24 c8
-16 8 -28 -2 -50 -7 -17 -16 -30 -20 -30 -5 0 -8 -7 -8 -16 0 -8 5 -12 10 -9
6 3 10 1 10 -4 0 -6 -5 -11 -12 -11 -6 0 -4 -6 7 -13 20 -15 13 -37 -12 -37
-13 0 -15 10 -11 55 3 39 1 59 -9 66 -16 14 -17 41 -1 57 18 18 36 15 48 -8z
m-403 -182 c6 -26 21 -61 33 -78 17 -24 18 -30 6 -30 -9 0 -23 15 -32 33 -9
17 -30 47 -45 65 -38 43 -38 64 -1 60 23 -3 29 -10 39 -50z m838 33 c3 -5 -12
-30 -32 -54 -21 -24 -47 -62 -59 -82 -11 -21 -24 -34 -27 -28 -4 5 5 25 18 43
14 19 25 42 25 52 0 32 29 78 50 78 10 0 21 -4 25 -9z m-372 -52 c5 -17 11
-20 31 -15 19 5 28 1 35 -13 14 -26 19 -135 6 -137 -5 0 -17 -3 -25 -7 -18 -7
-104 -20 -140 -21 -14 -1 -28 -5 -32 -10 -3 -5 -9 13 -12 40 -4 27 -10 67 -14
89 -9 50 13 76 73 86 66 11 72 10 78 -12z m-153 -9 c0 -5 -6 -10 -14 -10 -8 0
-17 -8 -19 -17 -3 -11 -5 -7 -6 10 -1 21 4 27 19 27 11 0 20 -4 20 -10z m-163
-91 c27 12 33 11 37 -11 1 -7 12 -33 25 -56 12 -24 20 -46 17 -49 -11 -11 -86
-20 -79 -10 3 5 0 7 -8 5 -8 -3 -13 -11 -11 -17 1 -7 -2 -10 -7 -6 -6 3 -28
-3 -50 -14 -45 -24 -49 -21 -87 57 -15 30 -24 40 -24 27 0 -16 -2 -17 -9 -5
-12 18 -3 33 16 26 9 -4 21 1 28 10 18 26 97 54 113 41 9 -7 20 -6 39 2z m568
-47 c11 -25 28 -30 19 -7 -4 8 -2 15 2 15 20 0 38 -20 39 -42 2 -24 -54 -148
-67 -148 -4 0 -5 8 -1 18 5 16 5 16 -8 0 -12 -15 -18 -15 -49 -3 -19 7 -63 24
-98 37 l-63 24 25 35 c14 19 35 51 48 71 13 21 32 39 43 40 36 6 100 -18 110
-40z m95 -37 c0 -25 -16 -24 -18 1 -1 15 2 22 8 19 6 -3 10 -12 10 -20z m-330
-33 c0 -4 -11 -24 -25 -44 -14 -20 -25 -39 -25 -41 0 -7 60 5 65 13 10 16 103
-22 109 -44 8 -30 0 -32 -49 -8 l-44 21 -25 -42 c-35 -61 -41 -87 -21 -87 9 0
13 5 10 10 -8 13 4 13 44 -1 17 -6 31 -15 31 -21 0 -6 -7 -7 -15 -4 -38 15
-48 16 -25 2 14 -8 30 -15 37 -16 16 0 59 75 68 118 6 31 19 39 41 24 12 -8
26 -64 13 -57 -4 3 -22 -20 -40 -51 -20 -35 -34 -52 -39 -44 -5 8 -9 7 -13 -5
-5 -11 -15 -14 -34 -11 -16 2 -28 5 -28 6 0 1 -8 3 -18 5 -10 2 -24 11 -31 21
-8 10 -18 14 -25 10 -8 -5 -14 -1 -18 12 -3 14 -10 19 -21 15 -11 -5 -13 -2
-8 8 4 8 0 5 -8 -5 -26 -32 -18 1 13 55 23 41 27 58 23 94 -2 24 -2 51 1 60 6
15 57 22 57 7z m-221 -46 c17 -34 53 -132 46 -124 -4 3 -23 -5 -42 -18 -20
-13 -40 -24 -46 -24 -5 0 -32 -14 -59 -30 l-48 -30 -12 25 c-6 14 -15 25 -19
25 -11 0 -79 132 -73 142 3 4 12 8 21 8 12 0 13 -3 4 -14 -10 -11 -6 -27 18
-73 17 -32 30 -54 31 -50 0 4 -11 29 -25 56 -23 46 -23 50 -7 64 39 35 101 59
134 52 21 -4 28 -3 20 3 -9 6 -4 9 17 9 20 0 33 -7 40 -21z m132 15 c14 23 10
-86 -4 -114 -12 -23 -13 -18 -13 49 1 40 3 69 5 63 2 -7 7 -6 12 2z m169 -107
c44 -18 49 -31 22 -65 -18 -21 -21 -22 -65 -10 l-46 13 20 39 c10 22 21 39 24
39 3 0 23 -7 45 -16z m-202 -26 c-5 -32 -28 -35 -28 -4 0 17 5 26 16 26 10 0
14 -7 12 -22z m391 -40 c21 -34 2 -67 -57 -100 -64 -37 -99 -42 -307 -42 -170
-1 -273 17 -337 59 -39 26 -50 61 -28 95 7 11 13 6 26 -25 17 -40 47 -69 74
-71 8 0 51 -9 94 -19 115 -26 336 -17 420 17 71 28 86 46 67 81 -27 50 17 54
48 5z m-390 -53 l2 -55 -40 0 c-35 0 -43 5 -66 38 l-25 37 37 17 c21 9 50 17
64 17 25 1 26 -2 28 -54z m316 -1 c-23 -17 -32 -10 -15 11 7 8 17 12 23 8 6
-4 3 -11 -8 -19z m-480 -15 c10 -15 2 -19 -24 -12 -17 4 -19 8 -9 14 18 12 26
11 33 -2z m205 -14 c0 -14 -4 -25 -10 -25 -5 0 -10 11 -10 25 0 14 5 25 10 25
6 0 10 -11 10 -25z m64 5 c12 -12 -2 -30 -24 -30 -17 0 -30 18 -30 41 0 11 39
2 54 -11z m284 -80 c11 0 13 -3 5 -8 -6 -4 -13 -26 -16 -50 -2 -30 -10 -47
-26 -58 -28 -20 -40 -10 -18 14 10 10 17 23 17 29 0 6 6 14 13 16 8 4 8 6 0 6
-6 1 -21 -11 -33 -26 -12 -16 -25 -28 -29 -28 -3 0 -20 -12 -36 -27 -16 -15
-32 -25 -36 -23 -4 3 -13 -2 -20 -11 -10 -12 -10 -15 1 -12 7 2 15 -2 17 -9 2
-7 -8 -15 -24 -19 -32 -8 -294 -11 -336 -4 l-29 4 44 38 c25 22 37 38 28 38
-10 0 -6 9 13 25 15 14 23 25 16 25 -8 0 -8 4 1 15 24 29 -1 14 -45 -26 -55
-50 -68 -47 -21 4 39 43 32 49 -13 12 -18 -16 -28 -33 -26 -44 2 -11 -8 -29
-23 -42 -15 -13 -20 -16 -13 -6 7 9 10 17 6 17 -5 0 0 9 10 20 12 13 14 20 5
20 -10 0 -9 4 1 18 13 16 13 16 -5 2 -14 -11 -20 -12 -23 -3 -2 7 -12 9 -21 6
-11 -4 -6 6 12 25 34 37 25 43 -13 10 l-26 -23 23 26 c23 26 30 45 12 34 -5
-3 -10 -1 -10 5 0 6 10 8 23 6 95 -21 178 -28 274 -24 l112 3 -21 -22 c-12
-13 -29 -21 -38 -18 -19 6 -75 -48 -65 -64 9 -16 34 0 91 57 27 27 59 52 72
56 74 21 69 21 48 -3 -11 -11 -24 -21 -31 -21 -6 0 -22 -12 -36 -27 l-24 -28
29 25 c24 21 27 22 18 5 -5 -11 -20 -29 -32 -40 -12 -11 -30 -32 -41 -46 -18
-26 -18 -26 6 -25 13 1 35 12 49 25 13 13 29 20 34 17 5 -3 9 1 8 10 0 9 10
23 24 32 20 14 23 14 15 2 -5 -8 6 0 23 18 24 25 30 40 26 57 -4 16 0 26 13
33 14 8 19 7 21 -4 2 -8 11 -14 20 -14z m-670 -12 c18 -18 15 -28 -8 -28 -13
0 -20 7 -20 20 0 23 10 26 28 8z m602 -6 c0 -4 -35 -41 -77 -82 -42 -41 -72
-68 -66 -60 6 8 11 19 11 23 0 5 25 35 56 68 52 54 76 71 76 51z m-200 -55 c0
-2 -15 -16 -32 -33 l-33 -29 29 33 c28 30 36 37 36 29z m-210 -32 c-13 -14
-20 -25 -16 -25 5 0 3 -7 -4 -15 -7 -8 -16 -13 -20 -10 -4 2 -15 -4 -25 -15
-10 -11 -23 -20 -29 -20 -6 1 16 25 48 55 62 57 87 73 46 30z m-190 -15 c9
-17 8 -20 -10 -20 -13 0 -20 7 -20 20 0 11 4 20 10 20 5 0 14 -9 20 -20z m70
9 c0 -5 6 -7 13 -3 6 4 9 3 4 -1 -10 -12 -47 -17 -47 -7 0 11 11 22 22 22 4 0
8 -5 8 -11z m-105 -48 c3 -6 31 -19 63 -31 31 -12 64 -28 73 -36 31 -28 358
-34 439 -8 21 6 15 -4 -32 -58 -32 -36 -58 -69 -58 -73 0 -3 18 8 40 26 21 17
38 35 37 39 -4 12 65 64 90 68 35 4 54 -9 39 -28 -6 -8 -20 -20 -31 -26 -10
-6 -21 -17 -23 -25 -3 -9 2 -8 17 5 11 11 21 15 21 9 0 -5 -9 -18 -20 -28 -12
-11 -20 -13 -20 -6 0 8 -9 5 -24 -6 -13 -10 -22 -22 -19 -28 3 -5 -4 0 -14 13
-18 23 -20 23 -34 5 -13 -16 -13 -17 4 -4 15 12 17 11 17 -2 0 -9 -5 -19 -12
-23 -21 -13 -270 -21 -343 -12 -38 6 -78 10 -87 10 -28 -1 -21 14 25 52 23 20
36 36 29 36 -7 0 -10 5 -7 10 4 6 3 10 -2 9 -22 -4 -34 2 -27 14 4 6 4 9 0 5
-4 -3 -8 -10 -8 -15 1 -12 -29 -43 -41 -43 -6 0 -2 9 8 20 10 11 15 20 10 20
-4 0 -1 8 6 18 10 13 8 12 -10 -3 -20 -17 -23 -17 -18 -3 3 9 3 19 -1 21 -4 2
-2 3 4 1 6 -1 17 2 25 7 10 6 6 9 -14 9 -37 0 -123 45 -137 71 -11 19 -10 20
9 10 11 -6 22 -15 26 -20z m598 -5 c-15 -19 -30 -35 -33 -35 -3 -1 -11 9 -19
22 -13 19 -12 21 1 10 12 -11 19 -8 38 12 35 38 46 30 13 -9z m117 24 c0 -33
-150 -99 -197 -87 -14 4 -13 5 5 6 32 1 172 67 172 80 0 6 5 11 10 11 6 0 10
-4 10 -10z m-644 -28 c1 -7 0 -8 -2 -3 -3 6 -12 7 -21 4 -11 -4 -14 -3 -9 6 9
14 29 10 32 -7z m-26 -78 c0 -8 -9 -14 -20 -14 -19 0 -27 19 -14 33 10 9 34
-4 34 -19z m104 -65 c-9 -10 -22 -16 -28 -12 -6 3 -8 3 -4 -2 8 -9 -9 -35 -23
-35 -15 0 3 34 29 57 30 26 51 20 26 -8z m-106 -3 c3 -13 -1 -17 -14 -14 -11
2 -20 11 -22 22 -3 13 1 17 14 14 11 -2 20 -11 22 -22z m19 -52 c8 3 11 1 8
-4 -3 -6 2 -10 13 -10 11 0 32 -10 48 -22 27 -22 37 -23 209 -23 171 1 218 4
257 20 25 10 11 -33 -18 -51 -12 -9 -35 -32 -51 -52 l-27 -37 36 28 c45 33 53
34 33 4 -8 -13 -13 -27 -10 -30 3 -4 2 -5 -2 -2 -3 3 -15 -3 -26 -12 -16 -16
-41 -18 -180 -18 -89 0 -172 5 -184 10 -22 10 -22 11 18 58 22 26 38 47 36 47
-3 0 -29 -20 -57 -44 -41 -35 -55 -42 -65 -33 -11 10 -5 21 28 56 l42 45 -38
-32 c-51 -43 -59 -40 -16 5 l34 36 -35 -23 -35 -24 23 25 c22 25 31 56 12 44
-14 -9 -100 32 -132 62 -44 42 -33 46 18 7 26 -19 53 -33 61 -30z m633 21
c-21 -23 -120 -60 -141 -53 -6 2 14 11 44 21 30 10 68 30 83 45 34 32 46 21
14 -13z m0 -55 c0 -5 -5 -10 -11 -10 -6 0 -3 -7 5 -16 19 -19 22 -88 4 -81 -7
2 -22 -3 -32 -12 -14 -12 -20 -13 -23 -3 -3 6 -10 12 -17 12 -18 0 -14 45 7
67 9 11 14 24 10 28 -5 5 1 3 12 -5 11 -8 17 -10 13 -6 -8 10 9 36 23 36 5 0
9 -4 9 -10z m-638 -55 c-3 -5 -7 -4 -10 3 -2 7 -10 12 -17 12 -18 0 -28 17
-19 31 8 14 54 -32 46 -46z m-17 -35 c0 -22 -29 -18 -33 3 -3 14 1 18 15 15
10 -2 18 -10 18 -18z m-60 -49 c-3 -5 3 -11 12 -14 17 -4 17 -4 -1 -12 -11 -5
-21 -4 -25 3 -4 7 -19 8 -46 2 -22 -5 -49 -9 -60 -9 -11 1 6 7 38 14 32 7 61
15 64 19 10 9 25 7 18 -3z m293 -78 c-10 -2 -26 -2 -35 0 -10 3 -2 5 17 5 19
0 27 -2 18 -5z"/>
<path d="M1548 1302 c-16 -2 -28 -10 -28 -18 0 -8 -6 -13 -12 -11 -9 1 -12
-12 -10 -48 2 -27 7 -53 11 -58 4 -4 25 -3 47 3 l39 10 -45 -6 c-52 -6 -48 4
6 16 27 6 41 5 46 -3 4 -7 7 11 6 38 -1 34 -2 40 -5 20 -3 -16 -10 -33 -16
-37 -18 -11 -77 -10 -77 2 0 6 11 10 25 10 14 0 25 4 25 10 0 5 7 7 16 3 12
-4 15 0 12 18 -2 15 -11 25 -24 27 -19 3 -21 -1 -16 -25 5 -24 3 -26 -10 -15
-9 7 -14 21 -11 33 5 17 12 20 39 17 19 -2 34 -1 34 3 0 10 -22 15 -52 11z"/>
<path d="M1193 1188 c-27 -13 -30 -48 -7 -84 15 -23 17 -23 29 -7 14 19 11 33
-8 33 -8 0 -8 -3 2 -9 9 -6 10 -11 3 -15 -9 -5 -32 21 -32 37 0 10 37 3 53
-11 22 -20 42 -3 32 27 -7 23 -34 28 -53 9 -6 -6 -15 -8 -19 -4 -10 10 17 26
43 26 27 0 46 -22 48 -55 0 -14 7 -25 13 -25 14 0 5 31 -19 69 -14 23 -49 26
-85 9z"/>
<path d="M1768 1172 c-16 -3 -68 -80 -68 -100 0 -10 37 -27 80 -37 23 -5 28
-1 48 40 13 26 20 55 17 65 -6 20 -50 38 -77 32z m62 -27 c13 -15 8 -39 -14
-68 -11 -14 -19 -16 -37 -8 -13 5 -32 12 -42 15 -14 5 -16 10 -7 25 6 11 16
18 23 15 7 -2 19 5 27 16 17 24 33 25 50 5z m-47 -87 c38 -20 7 -19 -35 1 -35
16 -37 19 -13 14 17 -3 38 -10 48 -15z"/>
<path d="M1794 1130 c-25 -10 -44 -46 -19 -36 8 3 15 1 15 -4 0 -19 17 -10 28
15 18 39 16 41 -24 25z"/>
<path d="M1268 1033 c-15 -10 -29 -24 -31 -33 -5 -21 34 -100 50 -100 14 0 93
39 93 47 0 2 -10 27 -21 54 -24 54 -43 61 -91 32z m72 -20 c8 -16 16 -31 17
-35 2 -4 -15 -17 -38 -29 -43 -22 -64 -14 -51 19 3 10 1 13 -6 8 -7 -4 -12 -2
-12 3 0 15 13 14 29 -1 10 -11 10 -8 0 15 -11 24 -10 30 2 38 25 16 45 10 59
-18z m-10 -83 c-19 -11 -39 -19 -45 -19 -5 0 6 8 25 19 19 11 40 19 45 19 6 0
-6 -8 -25 -19z"/>
<path d="M1303 1023 c-7 -2 -13 -9 -13 -14 0 -6 4 -7 10 -4 15 10 -1 -28 -18
-42 -24 -19 -1 -15 29 5 21 14 25 21 18 40 -5 12 -10 22 -11 21 -2 0 -9 -3
-15 -6z"/>
<path d="M1632 955 c-10 -21 -9 -26 8 -35 28 -15 44 -12 59 11 11 18 11 23 -1
30 -22 14 -31 10 -17 -8 12 -14 12 -16 0 -8 -11 6 -13 4 -8 -11 7 -18 6 -18
-6 -2 -11 14 -16 15 -26 5 -10 -9 -11 -8 -6 6 4 9 11 17 16 17 5 0 9 5 9 10 0
19 -17 10 -28 -15z"/>
<path d="M1778 473 c-32 -33 -39 -57 -18 -58 15 -1 22 7 55 58 14 22 15 27 3
27 -8 0 -26 -12 -40 -27z"/>
<path d="M1625 443 c-27 -25 -41 -40 -30 -34 30 16 91 69 85 74 -3 3 -27 -15
-55 -40z"/>
<path d="M1650 424 c-33 -34 -37 -42 -17 -29 23 15 75 75 65 75 -2 0 -24 -21
-48 -46z"/>
<path d="M1660 291 c-22 -18 -29 -29 -18 -27 9 1 27 14 38 29 27 35 23 34 -20
-2z"/>
<path d="M1682 269 c-24 -23 -41 -43 -39 -45 2 -3 26 16 53 40 27 25 45 45 39
45 -5 0 -29 -18 -53 -40z"/>
<path d="M1309 254 c-20 -22 -26 -32 -14 -26 25 13 72 62 59 62 -6 0 -26 -16
-45 -36z"/>
<path d="M1043 273 c9 -2 25 -2 35 0 9 3 1 5 -18 5 -19 0 -27 -2 -17 -5z"/>
</g>
</svg>
